<svg width="60" height="40" viewBox="0 0 60 40" fill="none" xmlns="http://www.w3.org/2000/svg">
<path d="M0 34.5794L8.52245 12.6459H59.7545L0 34.5794Z" fill="#22BCEE"/>
<path fill-rule="evenodd" clip-rule="evenodd" d="M14.8543 0H8.51593H8.51465V9.85164H14.2621C15.1401 9.85164 15.9143 9.79652 16.5821 9.68885C17.2499 9.58118 17.8254 9.38123 18.3099 9.08771C18.9969 8.66729 19.5314 8.09177 19.9134 7.35989C20.2953 6.628 20.4863 5.79742 20.4863 4.86814C20.4863 3.32874 20.0121 2.13157 19.0636 1.2792C18.1163 0.426828 16.7128 0 14.8543 0ZM15.6759 7.84824C15.1273 7.9495 14.4915 8.00077 13.766 8.00077H10.8077V1.7573H14.8748C15.9566 1.7573 16.7679 2.01878 17.3088 2.54046C17.8497 3.06213 18.1202 3.82607 18.1202 4.83097C18.1202 5.44237 18.0305 5.95123 17.8523 6.35883C17.6741 6.76643 17.4037 7.09072 17.0409 7.33297C16.6782 7.57522 16.2232 7.74698 15.6759 7.84824ZM25.416 40L9.86948 32.1761L59.7544 12.6959L25.416 40ZM24.6021 1.18435C24.6841 0.879291 24.8212 0.640882 25.0122 0.467844C25.2032 0.296088 25.4544 0.175602 25.7659 0.105105C26.0774 0.0358893 26.4632 0 26.9208 0H34.1756C34.6344 0 35.019 0.0358893 35.3304 0.105105C35.6419 0.175602 35.8931 0.296088 36.0841 0.467844C36.2751 0.6396 36.4122 0.878009 36.4943 1.18435C36.5763 1.48941 36.6186 1.87138 36.6186 2.33025V7.52395C36.6186 7.98282 36.5776 8.36351 36.4943 8.66985C36.411 8.97491 36.2751 9.2146 36.0841 9.38636C35.8931 9.55811 35.6419 9.67988 35.3304 9.74909C35.019 9.81959 34.6332 9.8542 34.1756 9.8542H26.9208C26.4632 9.8542 26.0774 9.81959 25.7659 9.74909C25.4544 9.67988 25.2032 9.55811 25.0122 9.38636C24.8212 9.2146 24.6841 8.97619 24.6021 8.66985C24.5188 8.36479 24.4777 7.98282 24.4777 7.52395V2.33025C24.4777 1.87138 24.5188 1.49069 24.6021 1.18435ZM34.3294 8.00077V1.7573H26.7682V8.00077H34.3294ZM43.5324 8.00077V1.7573H49.7182V3.62867L52.01 3.26593V2.33025C52.01 1.87138 51.9677 1.48941 51.8857 1.18435C51.8037 0.878009 51.6665 0.6396 51.4755 0.467844C51.2845 0.296088 51.0333 0.175602 50.7219 0.105105C50.4104 0.0358893 50.0259 0 49.567 0H43.6862C43.2287 0 42.8428 0.0358893 42.5314 0.105105C42.2199 0.175602 41.9687 0.296088 41.7777 0.467844C41.5867 0.640882 41.4496 0.879291 41.3675 1.18435C41.2842 1.49069 41.2432 1.87138 41.2432 2.33025V7.52395C41.2432 7.98282 41.2842 8.36479 41.3675 8.66985C41.4496 8.97619 41.5867 9.2146 41.7777 9.38636C41.9687 9.55811 42.2199 9.67988 42.5314 9.74909C42.8428 9.81959 43.2287 9.8542 43.6862 9.8542H49.567C50.0246 9.8542 50.4104 9.81959 50.7219 9.74909C51.0333 9.67988 51.2845 9.55811 51.4755 9.38636C51.6665 9.2146 51.8024 8.97491 51.8857 8.66985C51.969 8.36351 52.01 7.98282 52.01 7.52395V6.35883L49.7182 5.88201V8.00077H43.5324Z" fill="#173961"/>
<path fill-rule="evenodd" clip-rule="evenodd" d="M10.6105 14.8082H8.52246V23.3807H10.6105V14.8082ZM15.858 14.8082H14.4199V23.3807H16.304V17.605L23.5755 23.3807H25.0175V14.8082H23.1333V20.5031L15.858 14.8082Z" fill="white"/>
</svg>
